<?xml version="1.0" encoding="UTF-8"?> <!-- Generator: Adobe Illustrator 25.0.1, SVG Export Plug-In . SVG Version: 6.00 Build 0) --> <svg xmlns="http://www.w3.org/2000/svg" xmlns:xlink="http://www.w3.org/1999/xlink" version="1.1" id="Layer_1" x="0px" y="0px" viewBox="0 0 244.6 104.7" style="enable-background:new 0 0 244.6 104.7;" xml:space="preserve"> <style type="text/css"> .st0{fill:#EC2224;} .st1{fill:#A4A4A4;} </style> <rect x="110.5" y="53.3" width="1.6" height="13.7"></rect> <path d="M124.5,63.9c-0.1,0-0.1-0.1-0.1-0.2V62c0-0.1,0.1-0.1,0.1-0.1c0.8,0.5,1.7,0.7,2.5,0.7c1.1,0,1.5-0.4,1.5-0.9 c0-0.4-0.3-0.8-1.3-1.2l-0.7-0.3c-1.7-0.7-2.2-1.6-2.2-2.7c0-1.5,1.1-2.7,3.4-2.7c0.9,0,1.7,0.1,2.2,0.4c0.1,0,0.1,0.1,0.1,0.2V57 c0,0.1,0,0.1-0.1,0.1c-0.6-0.3-1.3-0.5-2.1-0.5c-1.1,0-1.4,0.4-1.4,0.8c0,0.4,0.3,0.7,1.3,1.1l0.5,0.2c1.9,0.8,2.4,1.6,2.4,2.8 c0,1.7-1.4,2.7-3.5,2.7C125.9,64.3,125.1,64.2,124.5,63.9"></path> <path d="M134.2,59.6c0.2,0,0.4,0,0.8,0c1.1,0,2-0.3,2-1.5c0-0.9-0.6-1.4-1.8-1.4c-0.4,0-0.8,0-0.9,0v2.9H134.2z M132.3,55.2 c0-0.1,0-0.1,0.1-0.1c0.6,0,1.7,0,2.7,0c2.8,0,3.8,1.6,3.8,3.1c0,2.3-1.7,3.2-3.9,3.2h-0.8v2.7c0,0.1,0,0.1-0.1,0.1h-1.7 c-0.1,0-0.1,0-0.1-0.1V55.2z"></path> <path d="M146.4,64.1c0,0.1,0,0.1-0.1,0.1h-5.7c-0.1,0-0.1,0-0.1-0.1v-8.9c0-0.1,0-0.1,0.1-0.1h5.5c0.1,0,0.1,0,0.2,0.1l0.2,1.5 c0,0.1,0,0.1-0.1,0.1h-3.9v1.9h3.6c0.1,0,0.1,0,0.1,0.1v1.5c0,0.1-0.1,0.1-0.1,0.1h-3.6v2h4.1c0.1,0,0.1,0,0.1,0.1L146.4,64.1z"></path> <path d="M154.7,63.9c0,0.1,0,0.2-0.1,0.2c-0.5,0.2-1.2,0.3-1.9,0.3c-2.7,0-4.8-1.6-4.8-4.7c0-2.8,2-4.8,5-4.8c0.9,0,1.4,0.1,1.8,0.2 c0.1,0,0.1,0.1,0.1,0.2v1.5c0,0.1-0.1,0.1-0.1,0.1c-0.5-0.2-1.1-0.3-1.8-0.3c-1.9,0-3,1.2-3,3c0,2.2,1.6,3,3.1,3 c0.7,0,1.2-0.1,1.7-0.2c0.1,0,0.1,0,0.1,0.1v1.4H154.7z"></path> <path d="M158.5,64.1c0,0.1,0,0.1-0.1,0.1h-1.7c-0.1,0-0.1,0-0.1-0.1v-8.9c0-0.1,0-0.1,0.1-0.1h1.7c0.1,0,0.1,0,0.1,0.1V64.1z"></path> <path d="M165.1,60.3c-0.3-0.9-0.8-2.6-1.1-3.6l0,0c-0.2,0.9-0.7,2.5-1.1,3.6H165.1z M162.4,62l-0.7,2.1c0,0.1-0.1,0.1-0.2,0.1H160 c-0.1,0-0.1-0.1-0.1-0.1l2.8-8c0.1-0.2,0.1-0.3,0.1-0.9c0-0.1,0-0.1,0.1-0.1h2.2c0.1,0,0.1,0,0.1,0.1l3.2,8.9c0,0.1,0,0.1-0.1,0.1 h-1.8c-0.1,0-0.1,0-0.2-0.1l-0.7-2.1H162.4z"></path> <path d="M169.9,64.2c-0.1,0-0.1-0.1-0.1-0.2v-8.8c0-0.1,0-0.1,0.1-0.1h1.7c0.1,0,0.1,0,0.1,0.1v7.3h4c0.1,0,0.1,0.1,0.1,0.1 l-0.2,1.5c0,0.1-0.1,0.1-0.1,0.1L169.9,64.2z"></path> <path d="M179.1,64.1c0,0.1,0,0.1-0.1,0.1h-1.7c-0.1,0-0.1,0-0.1-0.1v-8.9c0-0.1,0-0.1,0.1-0.1h1.7c0.1,0,0.1,0,0.1,0.1V64.1z"></path> <path d="M180.8,64.2c-0.1,0-0.1,0-0.1-0.1V63c0-0.1,0-0.1,0-0.2l4.6-6h-4.4c-0.1,0-0.1,0-0.1-0.1l0.2-1.5c0-0.1,0.1-0.1,0.1-0.1h6.6 c0.1,0,0.1,0,0.1,0.1v1.2c0,0.1,0,0.1-0.1,0.2l-4.5,5.9h4.8c0.1,0,0.1,0.1,0.1,0.1l-0.3,1.5c0,0.1,0,0.1-0.1,0.1 C187.7,64.2,180.8,64.2,180.8,64.2z"></path> <path d="M195.6,64.1c0,0.1,0,0.1-0.1,0.1h-5.7c-0.1,0-0.1,0-0.1-0.1v-8.9c0-0.1,0-0.1,0.1-0.1h5.5c0.1,0,0.1,0,0.2,0.1l0.2,1.5 c0,0.1,0,0.1-0.1,0.1h-3.9v1.9h3.6c0.1,0,0.1,0,0.1,0.1v1.5c0,0.1-0.1,0.1-0.1,0.1h-3.6v2h4.1c0.1,0,0.1,0,0.1,0.1L195.6,64.1z"></path> <path d="M199.5,62.5c0.3,0,0.5,0,0.8,0c1.8,0,3-1.1,3-3s-1.2-2.8-3-2.8c-0.3,0-0.6,0-0.9,0L199.5,62.5L199.5,62.5z M197.6,55.2 c0-0.1,0-0.1,0.1-0.1c0.4,0,1.5,0,2.7,0c3.3,0,5,1.9,5,4.4c0,3.3-2.6,4.7-4.9,4.7c-0.9,0-2.3,0-2.8,0c-0.1,0-0.1,0-0.1-0.1V55.2z"></path> <polygon class="st0" points="-0.1,44.9 18.7,0 -0.1,0 "></polygon> <polygon class="st0" points="31.9,0 50.6,0 50.6,44.9 "></polygon> <polygon class="st0" points="25.3,16.5 37.2,44.9 29.4,44.9 25.8,35.8 17.1,35.8 "></polygon> <path d="M72.7,11.4c-0.5-1.7-1.5-4.8-2-6.6l0,0c-0.4,1.7-1.3,4.6-2,6.6H72.7z M67.7,14.6l-1.2,3.8c-0.1,0.1-0.1,0.2-0.3,0.2h-3 c-0.2,0-0.2-0.1-0.2-0.3l5.2-14.9c0.1-0.3,0.2-0.6,0.3-1.6c0-0.1,0.1-0.2,0.2-0.2h4.1c0.1,0,0.2,0,0.2,0.2l5.8,16.5 c0.1,0.1,0,0.2-0.1,0.2h-3.3c-0.2,0-0.2-0.1-0.3-0.2l-1.3-3.8L67.7,14.6L67.7,14.6z"></path> <path d="M87.8,8.7c-0.3-0.1-0.6-0.1-1-0.1c-2,0-3.7,1.2-3.7,3.6c0,2.5,1.5,3.7,3.4,3.7c0.4,0,0.8,0,1.2-0.2L87.8,8.7L87.8,8.7z M79.5,12.3c0-3.7,2.8-6.8,7.5-6.8c0.2,0,0.5,0,0.8,0.1V0.5c0-0.1,0.1-0.2,0.2-0.2h3.2c0.1,0,0.2,0.1,0.2,0.2v15.2 c0,0.6,0,1.4,0.1,1.9c0,0.1,0,0.2-0.2,0.2c-1.8,0.7-3.5,1-5.1,1C82.4,18.9,79.5,16.7,79.5,12.3"></path> <path d="M97.3,12.2c0,2.3,1.1,3.7,2.8,3.7c1.5,0,2.6-1.3,2.6-3.7c0-2-0.8-3.7-2.8-3.7C98.4,8.5,97.3,9.9,97.3,12.2 M106.4,12.1 c0,4-2.6,6.7-6.3,6.7c-4.4,0-6.4-3.3-6.4-6.6c0-3.7,2.4-6.7,6.4-6.7C104.2,5.5,106.4,8.7,106.4,12.1"></path> <path d="M113.8,8.6c-0.8,0-1.2,0.1-1.5,0.2v7c0.3,0.1,0.6,0.1,1,0.1c2,0,3.7-1.2,3.7-3.9C117,9.7,115.6,8.6,113.8,8.6 M112,0.3 c0.2,0,0.3,0,0.3,0.2v5.3c0.7-0.2,1.4-0.3,2.2-0.3c3.8,0,6.2,2.7,6.2,6.1c0,4.8-3.8,7.2-7.7,7.2c-1.4,0-2.7-0.2-4-0.6 c-0.1,0-0.2-0.2-0.2-0.3V0.5c0-0.1,0.1-0.2,0.2-0.2H112z"></path> <path d="M129.3,10.6c0.8,0,1.2,0,1.3-0.1v-0.2c0-0.6-0.5-2-2.2-2c-1.6,0-2.3,1.2-2.5,2.3H129.3z M126,13.1c0.1,1.5,1.2,2.7,3.7,2.7 c1.2,0,2.2-0.2,3.2-0.6c0.1-0.1,0.2,0,0.2,0.1v2.4c0,0.2-0.1,0.3-0.2,0.3c-1,0.5-2.2,0.7-3.9,0.7c-4.8,0-6.5-3.3-6.5-6.5 c0-3.6,2.2-6.8,6.2-6.8c3.9,0,5.4,3,5.4,5.6c0,0.8-0.1,1.4-0.1,1.7c0,0.1-0.1,0.2-0.2,0.2c-0.3,0.1-1.3,0.1-2.7,0.1H126V13.1z"></path> <path d="M64,43.7c-0.1-0.1-0.2-0.2-0.2-0.4v-3.1c0-0.1,0.1-0.2,0.2-0.1c1.4,0.9,3.1,1.3,4.7,1.3c2,0,2.7-0.7,2.7-1.6 c0-0.8-0.6-1.4-2.3-2.2l-1.3-0.5c-3.2-1.3-4-2.9-4-4.9c0-2.8,2.1-5,6.2-5c1.6,0,3.1,0.2,4,0.7c0.1,0.1,0.2,0.2,0.2,0.3v2.9 c0,0.1-0.1,0.2-0.2,0.1c-1-0.6-2.4-0.9-4-0.9c-2,0-2.7,0.7-2.7,1.5c0,0.8,0.5,1.3,2.5,2.1l1,0.4c3.4,1.4,4.4,3,4.4,5.1 c0,3.1-2.5,5.1-6.5,5.1C66.7,44.6,65.1,44.3,64,43.7"></path> <path d="M80.4,37.9c0,2.3,1.1,3.7,2.8,3.7c1.5,0,2.6-1.3,2.6-3.7c0-2-0.8-3.7-2.8-3.7C81.6,34.3,80.4,35.6,80.4,37.9 M89.5,37.9 c0,4-2.6,6.7-6.3,6.7c-4.4,0-6.4-3.3-6.4-6.6c0-3.7,2.4-6.7,6.4-6.7C87.4,31.3,89.5,34.4,89.5,37.9"></path> <path d="M91.8,26.3c0-0.1,0.1-0.2,0.3-0.2h3.1c0.2,0,0.3,0.1,0.3,0.2v14.4c0,0.7,0.2,1,0.8,1c0.2,0,0.2,0,0.5,0 c0.1,0,0.1,0.1,0.1,0.2v2.2c0,0.2,0,0.3-0.2,0.3c-0.3,0.1-0.8,0.2-1.6,0.2c-1.9,0-3.2-0.7-3.2-3.6V26.3H91.8z"></path> <path d="M109.9,41.5c0,1.3,0.1,2.1,0.2,2.7c0,0.2-0.1,0.2-0.2,0.2H107c-0.2,0-0.3-0.1-0.3-0.2c-0.1-0.2-0.1-0.6-0.2-0.8 c-1.1,1-2.4,1.2-3.5,1.2c-2.6,0-4.4-1.4-4.4-5v-7.9c0-0.2,0.1-0.2,0.2-0.2h3.1c0.2,0,0.2,0.1,0.2,0.2v7.5c0,1.4,0.6,2.3,2,2.3 c0.8,0,1.4-0.3,2-0.7v-9c0-0.2,0.1-0.2,0.3-0.2h3.1c0.2,0,0.2,0.1,0.2,0.2v9.7C109.7,41.5,109.9,41.5,109.9,41.5z"></path> <path d="M119.6,43.9c0,0.2,0,0.3-0.2,0.3c-0.7,0.3-1.4,0.4-2.3,0.4c-2.2,0-3.6-1.1-3.6-3.7v-6.4H112c-0.2,0-0.2-0.1-0.2-0.2v-2.5 c0-0.2,0.1-0.2,0.2-0.2h1.5c0-0.9,0.1-2.4,0.3-3.1c0-0.1,0.1-0.2,0.2-0.2l3-0.4c0.1,0,0.2,0,0.2,0.2c-0.1,0.8-0.1,2.3-0.1,3.6h2.4 c0.2,0,0.2,0.1,0.2,0.2v2.6c0,0.1-0.1,0.2-0.2,0.2h-2.4V40c0,1.1,0.3,1.6,1.4,1.6c0.3,0,0.6-0.1,0.9-0.1c0.1,0,0.2,0,0.2,0.2V43.9z"></path> <path d="M121.8,31.7c0-0.1,0.1-0.2,0.2-0.2h3.2c0.2,0,0.2,0.1,0.2,0.2v12.4c0,0.2,0,0.2-0.2,0.2h-3.1c-0.2,0-0.3-0.1-0.3-0.2 C121.8,44.1,121.8,31.7,121.8,31.7z M121.6,28.2c0-1.2,0.8-2,2-2s2,0.8,2,2s-0.8,2-2,2S121.6,29.4,121.6,28.2"></path> <path d="M131.3,37.9c0,2.3,1.1,3.7,2.8,3.7c1.5,0,2.6-1.3,2.6-3.7c0-2-0.8-3.7-2.8-3.7C132.5,34.3,131.3,35.6,131.3,37.9 M140.4,37.9c0,4-2.6,6.7-6.3,6.7c-4.4,0-6.4-3.3-6.4-6.6c0-3.7,2.4-6.7,6.4-6.7C138.3,31.3,140.4,34.4,140.4,37.9"></path> <path d="M142.7,34.5c0-0.9-0.1-2.2-0.1-2.8c0-0.1,0-0.2,0.2-0.2h2.7c0.2,0,0.3,0.1,0.3,0.2c0.1,0.2,0.2,0.5,0.2,0.8 c1.1-0.9,2.3-1.3,3.7-1.3c2,0,4.3,1,4.3,5.2V44c0,0.2-0.1,0.2-0.2,0.2h-3.1c-0.2,0-0.3-0.1-0.3-0.2v-7.3c0-1.5-0.7-2.4-2-2.4 c-0.9,0-1.6,0.3-2.1,0.8V44c0,0.1-0.1,0.2-0.2,0.2H143c-0.2,0-0.2-0.1-0.2-0.2L142.7,34.5L142.7,34.5z"></path> <path d="M166.8,35.9c0.4,0,0.7,0,1.4,0c2,0,3.7-0.6,3.7-2.7c0-1.6-1.1-2.7-3.3-2.7c-0.8,0-1.5,0-1.8,0.1L166.8,35.9L166.8,35.9z M163.3,27.7c0-0.2,0-0.2,0.2-0.2c1.1,0,3.1-0.1,5-0.1c5.2,0,7,2.9,7,5.7c0,4.2-3.2,5.9-7.2,5.9h-1.5v5.1c0,0.1-0.1,0.2-0.2,0.2 h-3.2c-0.1,0-0.2-0.1-0.2-0.2L163.3,27.7L163.3,27.7z"></path> <path d="M183.7,38.8c-0.4-0.1-0.8-0.1-1.3-0.1c-1.8,0-2.6,0.6-2.6,1.5c0,0.8,0.6,1.5,2.3,1.5c0.6,0,1.1-0.1,1.6-0.2V38.8z M187.2,41.5c0,0.7,0,1.2,0.1,1.8c0,0.1,0,0.1-0.1,0.1c-2.3,0.9-3.8,1.2-5.6,1.2c-2.9,0-5.2-1.3-5.2-4.3c0-2.7,2.4-4.2,5.8-4.2 c0.7,0,1.3,0,1.5,0.1V36c0-0.5-0.3-1.6-2.5-1.6c-1.3,0-2.4,0.3-3.4,0.7c-0.1,0.1-0.2,0-0.2-0.1v-2.6c0-0.1,0-0.2,0.2-0.3 c1.1-0.5,2.6-0.8,4-0.8c3.7,0,5.4,2.3,5.4,5.2V41.5z"></path> <path d="M193.1,31.5c0.2,0,0.3,0.1,0.3,0.2c0.1,0.3,0.3,0.9,0.3,1.4c0.8-1,2.3-1.9,4.1-1.9c0.2,0,0.2,0.1,0.2,0.2v3.2 c0,0.1-0.1,0.2-0.2,0.2c-1.9-0.1-3.3,0.5-3.9,1.1v8.2c0,0.2-0.1,0.2-0.2,0.2h-3.1c-0.2,0-0.3-0.1-0.3-0.2v-8.9c0-1.1,0-2.6-0.1-3.5 c0-0.1,0-0.2,0.2-0.2C190.4,31.5,193.1,31.5,193.1,31.5z"></path> <path d="M207.2,43.9c0,0.2,0,0.3-0.2,0.3c-0.7,0.3-1.4,0.4-2.3,0.4c-2.2,0-3.6-1.1-3.6-3.7v-6.4h-1.5c-0.2,0-0.2-0.1-0.2-0.2v-2.5 c0-0.2,0.1-0.2,0.2-0.2h1.5c0-0.9,0.1-2.4,0.3-3.1c0-0.1,0.1-0.2,0.2-0.2l3-0.4c0.1,0,0.2,0,0.2,0.2c-0.1,0.8-0.1,2.3-0.1,3.6h2.4 c0.2,0,0.2,0.1,0.2,0.2v2.6c0,0.1-0.1,0.2-0.2,0.2h-2.4V40c0,1.1,0.3,1.6,1.4,1.6c0.3,0,0.6-0.1,0.9-0.1c0.1,0,0.2,0,0.2,0.2 L207.2,43.9L207.2,43.9z"></path> <path d="M209.3,34.5c0-0.9-0.1-2.2-0.1-2.8c0-0.1,0-0.2,0.2-0.2h2.7c0.2,0,0.3,0.1,0.3,0.2c0.1,0.2,0.2,0.5,0.2,0.8 c1.1-0.9,2.3-1.3,3.7-1.3c2,0,4.3,1,4.3,5.2V44c0,0.2-0.1,0.2-0.2,0.2h-3.1c-0.2,0-0.3-0.1-0.3-0.2v-7.3c0-1.5-0.7-2.4-2-2.4 c-0.9,0-1.6,0.3-2.1,0.8V44c0,0.1-0.1,0.2-0.2,0.2h-3.1c-0.2,0-0.2-0.1-0.2-0.2L209.3,34.5L209.3,34.5z"></path> <path d="M230,36.4c0.8,0,1.2,0,1.3-0.1v-0.2c0-0.6-0.5-2-2.2-2c-1.6,0-2.3,1.2-2.5,2.3H230z M226.6,38.9c0.1,1.5,1.2,2.7,3.7,2.7 c1.2,0,2.2-0.2,3.2-0.6c0.1-0.1,0.2,0,0.2,0.1v2.4c0,0.2-0.1,0.3-0.2,0.3c-1,0.5-2.2,0.7-3.9,0.7c-4.8,0-6.5-3.3-6.5-6.5 c0-3.6,2.2-6.8,6.2-6.8c3.9,0,5.4,3,5.4,5.6c0,0.8-0.1,1.4-0.1,1.7c0,0.1-0.1,0.2-0.2,0.2c-0.3,0.1-1.3,0.1-2.7,0.1L226.6,38.9 L226.6,38.9z"></path> <path d="M239.7,31.5c0.2,0,0.3,0.1,0.3,0.2c0.1,0.3,0.3,0.9,0.3,1.4c0.8-1,2.3-1.9,4.1-1.9c0.2,0,0.2,0.1,0.2,0.2v3.2 c0,0.1-0.1,0.2-0.2,0.2c-1.9-0.1-3.3,0.5-3.9,1.1v8.2c0,0.2-0.1,0.2-0.2,0.2h-3.1c-0.2,0-0.3-0.1-0.3-0.2v-8.9c0-1.1,0-2.6-0.1-3.5 c0-0.1,0-0.2,0.2-0.2C237,31.5,239.7,31.5,239.7,31.5z"></path> <path d="M66.8,60.7C66.7,60.7,66.7,60.7,66.8,60.7l-0.1-1.5c0-0.1,0-0.1,0.1-0.1H70c0.1,0,0.1,0,0.1,0.1v4.6c0,0.1,0,0.1-0.1,0.1 c-1,0.4-2,0.5-2.8,0.5c-3.3,0-4.9-2.1-4.9-4.6c0-2.9,2.1-4.8,5.2-4.8c0.9,0,1.8,0.1,2.3,0.3c0.1,0,0.1,0.1,0.1,0.2V57 c0,0.1-0.1,0.1-0.1,0.1c-0.6-0.3-1.3-0.4-2.2-0.4c-2.2,0-3.3,1.1-3.3,3c0,1.7,1,3,3,3c0.4,0,0.6,0,0.9-0.1v-1.8L66.8,60.7z"></path> <path d="M80.8,59.7c0,2.8-1.8,4.8-4.4,4.8c-2.7,0-4.4-2-4.4-4.7c0-2.6,1.7-4.7,4.4-4.7C79.3,55,80.8,57.1,80.8,59.7 M76.5,62.7 c1.5,0,2.3-1.2,2.3-3c0-1.9-0.9-3-2.4-3c-1.4,0-2.4,1.1-2.4,3C74.1,61.4,75,62.7,76.5,62.7"></path> <path d="M83.2,64.3c-0.1,0-0.1-0.1-0.1-0.2v-8.8c0-0.1,0-0.1,0.1-0.1h1.7c0.1,0,0.1,0,0.1,0.1v7.3h4c0.1,0,0.1,0.1,0.1,0.1l-0.3,1.5 c0,0.1-0.1,0.1-0.1,0.1H83.2z"></path> <path d="M90.8,55.3C90.8,55.2,90.8,55.2,90.8,55.3c0.5-0.1,1.6-0.1,2.8-0.1c3.3,0,5,1.9,5,4.4c0,3.3-2.6,4.7-4.9,4.7 c-0.9,0-2.3,0-2.8,0c-0.1,0-0.1,0-0.1-0.1C90.8,64.2,90.8,55.3,90.8,55.3z M92.7,62.6c0.3,0,0.5,0,0.8,0c1.8,0,3-1.1,3-3 s-1.2-2.8-3-2.8c-0.3,0-0.6,0-0.9,0L92.7,62.6L92.7,62.6z"></path> <g> <path class="st1" d="M68.5,80h-3.3l-0.8,2.5c0,0.1-0.1,0.1-0.2,0.1h-1.5c-0.1,0-0.1,0-0.1-0.1l2.9-8.3c0.1-0.1,0.1-0.4,0.1-0.8 c0-0.1,0-0.1,0.1-0.1h2c0,0,0.1,0,0.1,0.1l3.3,9.1c0,0.1,0,0.1-0.1,0.1h-1.7c-0.1,0-0.1,0-0.1-0.1L68.5,80z M65.6,78.7h2.5 c0-0.1-0.2-0.7-0.6-1.8c-0.4-1.1-0.6-1.8-0.7-2.2l0,0C66.7,75.2,66.3,76.5,65.6,78.7z"></path> <path class="st1" d="M75.6,82.7c-1.1,0-2-0.3-2.6-0.9s-1-1.5-1-2.6c0-1,0.4-1.9,1.1-2.6s1.7-1,2.8-1c0.3,0,0.6,0,0.8,0.1v-3.1 c0-0.1,0-0.1,0.1-0.1h1.6c0.1,0,0.1,0,0.1,0.1V81c0,0.2,0,0.5,0,1c0,0.1,0,0.1-0.1,0.1C77.5,82.5,76.6,82.7,75.6,82.7z M76.6,81.3 V77c-0.2-0.1-0.5-0.2-0.8-0.2c-0.6,0-1.1,0.2-1.5,0.6s-0.6,1-0.6,1.7c0,0.8,0.2,1.3,0.6,1.7s0.8,0.6,1.4,0.6 C76.1,81.4,76.4,81.4,76.6,81.3z"></path> <path class="st1" d="M83.4,75.7c1.1,0,1.9,0.3,2.5,1s0.9,1.5,0.9,2.5c0,1.1-0.3,2-1,2.6s-1.5,1-2.5,1c-1.1,0-2-0.3-2.6-1 s-0.9-1.5-0.9-2.5s0.3-1.9,1-2.6S82.3,75.7,83.4,75.7z M83.3,76.9c-0.5,0-0.9,0.2-1.2,0.6c-0.3,0.4-0.4,1-0.4,1.7s0.1,1.3,0.4,1.7 s0.7,0.6,1.2,0.6s0.8-0.2,1.1-0.6s0.5-1,0.5-1.7s-0.1-1.3-0.4-1.7C84.3,77.1,83.8,76.9,83.3,76.9z"></path> <path class="st1" d="M88.3,72.5h1.6c0.1,0,0.1,0,0.1,0.1v3.3c0.5-0.2,0.9-0.3,1.5-0.3c1,0,1.8,0.3,2.3,0.9s0.9,1.4,0.9,2.4 c0,1.2-0.4,2.1-1.1,2.8s-1.6,1-2.6,1s-1.9-0.2-2.7-0.5c-0.1,0-0.1-0.1-0.1-0.1L88.3,72.5C88.2,72.5,88.2,72.5,88.3,72.5z M92.9,79.2c0-0.7-0.2-1.3-0.5-1.6C92,77.2,91.6,77,91.1,77c-0.4,0-0.8,0.1-1.1,0.2v4.1c0.3,0.1,0.6,0.2,1.1,0.2s0.9-0.2,1.3-0.6 C92.7,80.5,92.9,79.9,92.9,79.2z"></path> <path class="st1" d="M100.4,79.5h-2.8c0,0.6,0.2,1,0.5,1.4c0.4,0.3,0.9,0.5,1.5,0.5c0.7,0,1.2-0.1,1.7-0.4c0.1,0,0.1,0,0.1,0.1v1.1 c0,0.1,0,0.1-0.1,0.2c-0.6,0.3-1.3,0.4-2.1,0.4c-0.6,0-1.2-0.1-1.6-0.3c-0.5-0.2-0.8-0.5-1.1-0.8c-0.3-0.3-0.5-0.7-0.6-1.1 s-0.2-0.8-0.2-1.3c0-1,0.3-1.9,0.9-2.6s1.4-1,2.4-1s1.7,0.3,2.2,0.9s0.7,1.3,0.7,2c0,0.3,0,0.6-0.1,0.8c0,0.1,0,0.1-0.1,0.1 C101.6,79.5,101.1,79.5,100.4,79.5z M97.6,78.4h2c0.4,0,0.7,0,0.7,0s0-0.1,0-0.2c0-0.4-0.1-0.7-0.3-1s-0.5-0.4-1-0.4 c-0.4,0-0.8,0.2-1,0.5C97.8,77.6,97.7,78,97.6,78.4z"></path> <path class="st1" d="M111.9,80h-3.3l-0.8,2.5c0,0.1-0.1,0.1-0.2,0.1h-1.5c-0.1,0-0.1,0-0.1-0.1l2.9-8.3c0.1-0.1,0.1-0.4,0.1-0.8 c0-0.1,0-0.1,0.1-0.1h2c0,0,0.1,0,0.1,0.1l3.3,9.1c0,0.1,0,0.1-0.1,0.1h-1.7c-0.1,0-0.1,0-0.1-0.1L111.9,80z M109,78.7h2.5 c0-0.1-0.2-0.7-0.6-1.8c-0.4-1.1-0.6-1.8-0.7-2.2l0,0C110.2,75.2,109.8,76.5,109,78.7z"></path> <path class="st1" d="M116,82.5v-5.1c0-0.6,0-1.1-0.1-1.5c0-0.1,0-0.1,0.1-0.1h1.3c0.1,0,0.1,0,0.2,0.1c0,0.1,0.1,0.3,0.1,0.6 c0.6-0.5,1.3-0.8,2-0.8c0.6,0,1.2,0.2,1.7,0.6s0.7,1.1,0.7,2.1v4c0,0.1,0,0.1-0.1,0.1h-1.5c-0.1,0-0.1,0-0.1-0.1v-4.1 c0-0.4-0.1-0.8-0.3-1c-0.2-0.2-0.5-0.4-0.9-0.4c-0.5,0-1,0.2-1.3,0.6v4.9c0,0.1,0,0.1-0.1,0.1h-1.5C116,82.6,116,82.6,116,82.5z"></path> <path class="st1" d="M129.2,78.4v2.7c0,0.4,0,0.7,0,0.9c0,0,0,0,0,0.1c-1,0.5-2,0.7-3,0.7c-0.8,0-1.5-0.2-2-0.6s-0.8-0.9-0.8-1.7 c0-0.7,0.3-1.3,0.9-1.6c0.6-0.4,1.4-0.6,2.3-0.6c0.2,0,0.3,0,0.5,0s0.3,0,0.3,0v-0.2c0-0.1,0-0.3-0.1-0.4s-0.2-0.3-0.4-0.4 c-0.2-0.1-0.5-0.2-0.9-0.2c-0.6,0-1.3,0.2-1.9,0.5c-0.1,0-0.1,0-0.1-0.1v-1.1c0-0.1,0-0.1,0.1-0.1c0.7-0.3,1.4-0.5,2.3-0.5 s1.6,0.2,2.1,0.8C129,76.9,129.2,77.6,129.2,78.4z M127.5,81.4v-1.9c-0.2,0-0.4-0.1-0.8-0.1c-0.5,0-0.9,0.1-1.2,0.3 c-0.3,0.2-0.4,0.4-0.4,0.8c0,0.3,0.1,0.6,0.3,0.8c0.2,0.2,0.6,0.3,1,0.3C126.9,81.6,127.2,81.5,127.5,81.4z"></path> <path class="st1" d="M131,81v-8.4c0-0.1,0-0.1,0.1-0.1h1.5c0.1,0,0.1,0,0.1,0.1V81c0,0.2,0,0.3,0.1,0.4s0.2,0.1,0.3,0.1 s0.2,0,0.3,0c0,0,0.1,0,0.1,0.1v0.9c0,0.1,0,0.1-0.1,0.2c-0.2,0.1-0.5,0.1-0.9,0.1c-0.5,0-0.9-0.1-1.2-0.4 C131.1,82.1,131,81.6,131,81z"></path> <path class="st1" d="M134.2,75.8h1.7c0.1,0,0.1,0,0.1,0.1c0.9,2.4,1.5,3.9,1.6,4.4l0,0c0.4-1,0.9-2.4,1.5-4.4 c0-0.1,0.1-0.1,0.1-0.1h1.4c0.1,0,0.1,0,0.1,0.1c-0.5,1.6-1.3,3.5-2.3,5.8c-0.9,2.1-1.6,3.4-1.9,4c0,0.1-0.1,0.1-0.2,0.1H135 c-0.1,0-0.1,0-0.1-0.1c0.5-0.9,1.1-2.1,1.8-3.5c0-0.1,0-0.1,0-0.2c-0.1-0.3-0.6-1.3-1.3-3s-1.2-2.7-1.3-2.9 C134.1,75.8,134.1,75.8,134.2,75.8z"></path> <path class="st1" d="M145.9,81.5v0.9c0,0.1,0,0.1-0.1,0.2c-0.3,0.2-0.8,0.2-1.3,0.2c-1.2,0-1.9-0.7-1.9-2v-3.7h-0.9 c-0.1,0-0.1,0-0.1-0.1v-1c0-0.1,0-0.1,0.1-0.1h0.8c0-0.9,0.1-1.4,0.2-1.7c0-0.1,0.1-0.1,0.1-0.1l1.5-0.2c0.1,0,0.1,0,0.1,0.1 c0,0.4-0.1,1.1-0.1,2h1.3c0.1,0,0.1,0,0.1,0.1V77c0,0.1,0,0.1-0.1,0.1h-1.4v3.5c0,0.3,0.1,0.5,0.2,0.7c0.1,0.1,0.3,0.2,0.6,0.2 C145.4,81.5,145.6,81.5,145.9,81.5C145.9,81.4,145.9,81.4,145.9,81.5z"></path> <path class="st1" d="M148.8,74.4c-0.2,0.2-0.4,0.3-0.7,0.3s-0.5-0.1-0.7-0.3c-0.2-0.2-0.3-0.4-0.3-0.7c0-0.3,0.1-0.5,0.3-0.7 s0.4-0.3,0.7-0.3s0.5,0.1,0.7,0.3c0.2,0.2,0.3,0.4,0.3,0.7S149,74.2,148.8,74.4z M147.2,82.5v-6.6c0-0.1,0-0.1,0.1-0.1h1.6 c0.1,0,0.1,0,0.1,0.1v6.6c0,0.1,0,0.1-0.1,0.1h-1.5C147.3,82.6,147.2,82.6,147.2,82.5z"></path> <path class="st1" d="M155.6,81.2v1.1c0,0.1,0,0.1-0.1,0.1c-0.4,0.2-0.9,0.3-1.6,0.3c-1.1,0-2-0.3-2.6-1s-0.9-1.5-0.9-2.5 s0.3-1.9,1-2.6s1.6-1,2.7-1c0.6,0,1.1,0.1,1.4,0.2c0.1,0,0.1,0.1,0.1,0.2v1.1c0,0.1,0,0.1-0.1,0.1c-0.3-0.2-0.7-0.3-1.2-0.3 c-0.6,0-1.1,0.2-1.5,0.6s-0.6,0.9-0.6,1.6s0.2,1.3,0.6,1.6c0.4,0.4,0.9,0.6,1.5,0.6C154.8,81.4,155.2,81.3,155.6,81.2 C155.6,81.1,155.6,81.2,155.6,81.2z"></path> <path class="st1" d="M161.1,77.4c-0.5-0.3-1.1-0.5-1.6-0.5c-0.3,0-0.6,0.1-0.7,0.2c-0.2,0.1-0.2,0.3-0.2,0.4c0,0.2,0.1,0.3,0.2,0.4 s0.4,0.3,0.8,0.4c0.8,0.3,1.3,0.6,1.6,0.9s0.5,0.8,0.5,1.3c0,0.6-0.2,1.1-0.7,1.5s-1.1,0.6-2,0.6c-0.8,0-1.5-0.1-2-0.4 c-0.1,0-0.1-0.1-0.1-0.1v-1.3v-0.1c0,0,0,0,0.1,0c0.6,0.4,1.3,0.7,1.9,0.7c0.3,0,0.6-0.1,0.8-0.2s0.3-0.3,0.3-0.5s-0.1-0.4-0.2-0.5 c-0.1-0.1-0.4-0.3-0.8-0.4c-0.7-0.3-1.3-0.6-1.6-0.9s-0.4-0.8-0.4-1.3c0-0.6,0.2-1.1,0.7-1.5s1.1-0.6,1.9-0.6 c0.8,0,1.3,0.1,1.8,0.3c0,0,0.1,0.1,0.1,0.2v1.2C161.2,77.4,161.2,77.4,161.1,77.4z"></path> </g> <g> <path class="st1" d="M67.7,91.6L67.7,91.6h-2.3l0,0c0,0.5-0.1,0.7-0.1,0.9l-2.9,8.3l0,0l0,0H64c0,0,0.1,0,0.1-0.1l0.7-2.2h3.4v0.1 l0.7,2.1c0,0,0,0,0.1,0h1.9l0,0L67.7,91.6L67.7,91.6z M67.7,97h-2.5l0.1-0.4c0.4-1.1,0.8-2.5,1-3.4v-0.1h0.1v0.1 c0.2,0.7,0.5,1.7,0.8,2.5C67.5,96.2,67.6,96.6,67.7,97L67.7,97z"></path> <path class="st1" d="M78,90.9L78,90.9L78,90.9h-1.8l0,0v2.9h-0.1c-0.1,0-0.1,0-0.2,0s-0.2,0-0.3,0c-2.4,0-4.1,1.5-4.1,3.7 s1.4,3.6,3.7,3.6c1,0,1.9-0.2,2.8-0.6c0.1,0,0.1,0,0.1-0.1c0-0.3-0.1-0.8-0.1-1V90.9z M76.1,99.3L76.1,99.3 c-0.3,0.1-0.5,0.1-0.7,0.1c-1.3,0-2-0.8-2-2.1c0-1.4,1.1-2.1,2.1-2.1c0.2,0,0.4,0,0.6,0.1l0,0V99.3z"></path> <path class="st1" d="M82.9,93.8c-2.1,0-3.5,1.5-3.5,3.6c0,2.5,1.7,3.6,3.5,3.6c2.1,0,3.4-1.5,3.4-3.7 C86.3,95.6,85.3,93.8,82.9,93.8z M82.9,99.5c-1,0-1.6-0.8-1.6-2.1c0-1.3,0.6-2.1,1.5-2.1c1,0,1.6,0.8,1.6,2.1S83.8,99.5,82.9,99.5z "></path> <path class="st1" d="M90.9,93.8c-0.4,0-0.8,0.1-1.2,0.2h-0.1v-3l0,0c0,0,0,0-0.1,0h-1.7l0,0l0,0v9.7v0.1c0.7,0.2,1.4,0.3,2.2,0.3 c2,0,4.2-1.2,4.2-3.9C94.2,95.1,92.8,93.8,90.9,93.8z M90.2,99.5c-0.2,0-0.4,0-0.5-0.1h-0.1v-4h0.1h0.1c0.2,0,0.4-0.1,0.8-0.1 c1.1,0,1.8,0.7,1.8,2C92.3,98.9,91.2,99.5,90.2,99.5z"></path> <path class="st1" d="M98.7,93.8c-2.3,0-3.4,1.9-3.4,3.7c0,0.8,0.3,3.5,3.6,3.5c0.9,0,1.6-0.1,2.2-0.4c0,0,0.1,0,0.1-0.1v-1.4 c-0.5,0.2-1.1,0.3-1.8,0.3c-1.7,0-2.1-1-2.1-1.6v-0.1h2.9c0.8,0,1.3,0,1.5-0.1c0,0,0,0,0.1-0.1c0-0.2,0.1-0.5,0.1-0.9 C101.7,94.7,100.2,93.8,98.7,93.8z M99.9,96.5L99.9,96.5c-0.1,0-0.4,0-0.8,0h-2v-0.1c0.1-0.6,0.5-1.3,1.4-1.3c1,0,1.3,0.8,1.3,1.2 L99.9,96.5L99.9,96.5z"></path> <path class="st1" d="M113.2,93.2L113.2,93.2l-0.1-1.5c0,0,0-0.1-0.1-0.1h-7.2c-0.1,0-0.1,0-0.1,0.1l-0.2,1.5l0,0l0,0l0,0h2.9v7.5 c0,0,0,0,0,0.1l0,0h1.7c0,0,0.1,0,0.1-0.1v-7.5H113.2C113.2,93.3,113.2,93.3,113.2,93.2C113.2,93.3,113.2,93.3,113.2,93.2z"></path> <path class="st1" d="M118.8,96.6c0-1.8-1.1-2.8-2.9-2.8c-0.8,0-1.6,0.2-2.2,0.4c-0.1,0-0.1,0-0.1,0.1v1.4l0,0 c0.6-0.3,1.2-0.4,1.9-0.4c1.4,0,1.5,0.8,1.5,1v0.2h-0.1c-0.1,0-0.5,0-0.8,0c-2,0-3.2,0.8-3.2,2.2c0,1.5,1.1,2.3,2.8,2.3 c1,0,1.9-0.2,3.1-0.6l0,0c0-0.3,0-0.6,0-1C118.8,99.4,118.8,96.6,118.8,96.6z M117,99.5L117,99.5c-0.3,0.1-0.6,0.1-1,0.1 c-1.2,0-1.3-0.7-1.3-0.9c0-0.4,0.3-0.9,1.5-0.9c0.3,0,0.5,0,0.7,0h0.1C117,97.8,117,99.5,117,99.5z"></path> <path class="st1" d="M124.8,93.8c-1.2,0-2,0.7-2.2,1l-0.1,0.1v-0.2c0-0.3-0.1-0.6-0.2-0.8c0-0.1,0-0.1-0.1-0.1h-1.6l0,0l0,0 c0.1,0.5,0.1,1.5,0.1,1.9v4.9c0,0,0,0.1,0.1,0.1h1.7c0,0,0,0,0.1,0l0,0v-4.6l0,0c0.3-0.3,1.1-0.7,2.2-0.6l0,0l0,0V93.8L124.8,93.8 L124.8,93.8z"></path> <path class="st1" d="M128.2,99.3L128.2,99.3c-0.1-0.2-0.2-0.3-0.2-0.4s0-0.3,0-0.4v-0.1h0.1c0.2,0,0.3,0,0.5,0 c1.3,0,2.8-0.6,2.8-2.2c0-0.4-0.1-0.7-0.2-0.9l-0.1-0.1h0.1c0.3,0,0.8,0.1,1,0.1l0,0l0,0V94l0,0l0,0l0,0h-2c-0.1,0-0.2,0-0.4,0 s-0.7-0.1-1.3-0.1c-1.7,0-2.9,1-2.9,2.4c0,0.8,0.3,1.4,1,1.8h0.1v0.1c-0.2,0.3-0.2,0.6-0.2,0.9c0,0.4,0.1,0.7,0.3,1v0.1h-0.1 c-0.9,0.7-1.3,1.3-1.3,1.8c0,1,1.1,2.1,3.4,2.1c2.1,0,3.7-1.1,3.7-2.6c0-1.2-0.9-1.9-2.7-2L128.2,99.3z M128.5,95 c0.7,0,1.1,0.4,1.1,1.1c0,0.6-0.4,1-1.1,1c-0.7,0-1.1-0.4-1.1-1C127.4,95.4,127.8,95,128.5,95z M130.7,101.7c0,0.5-0.5,1-1.9,1 c-1.1,0-1.8-0.5-1.8-1c0-0.2,0.3-0.6,0.6-0.8l0,0l1.6,0.1C130,100.9,130.7,101,130.7,101.7z"></path> <path class="st1" d="M136.3,93.8c-2.3,0-3.4,1.9-3.4,3.7c0,0.8,0.3,3.5,3.6,3.5c0.9,0,1.6-0.1,2.2-0.4c0,0,0.1,0,0.1-0.1v-1.4 c-0.5,0.2-1.1,0.3-1.8,0.3c-1.7,0-2.1-1-2.1-1.6v-0.1h2.9c0.8,0,1.3,0,1.5-0.1c0,0,0,0,0.1-0.1c0-0.2,0.1-0.5,0.1-0.9 C139.2,94.7,137.7,93.8,136.3,93.8z M137.5,96.5L137.5,96.5c-0.1,0-0.4,0-0.8,0h-2v-0.1c0.1-0.6,0.5-1.3,1.4-1.3 c1,0,1.3,0.8,1.3,1.2v0.2H137.5z"></path> <path class="st1" d="M144.2,93.9h-1.4v-0.1c0-0.7,0-1.6,0.1-2l0,0l0,0l-1.7,0.2c0,0-0.1,0-0.1,0.1c-0.1,0.4-0.1,1.3-0.1,1.7v0.1 h-0.9l0,0l0,0v1.4c0,0,0,0,0.1,0.1h0.8h0.1V99c0,1.3,0.6,2,1.9,2c0.5,0,0.9-0.1,1.2-0.2c0,0,0,0,0-0.1v-1.2l0,0l0,0l0,0h-0.1 c-0.1,0-0.3,0-0.4,0c-0.6,0-0.8-0.3-0.8-1v-3.1h1.4l0,0l0,0L144.2,93.9C144.3,93.9,144.3,93.9,144.2,93.9 C144.3,93.9,144.3,93.9,144.2,93.9z"></path> </g> </svg> 