<?xml version="1.0" encoding="UTF-8"?> <!-- Generator: Adobe Illustrator 25.4.1, SVG Export Plug-In . SVG Version: 6.00 Build 0) --> <svg xmlns="http://www.w3.org/2000/svg" xmlns:xlink="http://www.w3.org/1999/xlink" version="1.1" id="Layer_1" x="0px" y="0px" viewBox="0 0 219 140" style="enable-background:new 0 0 219 140;" xml:space="preserve"> <style type="text/css"> .st0{fill:#25A1DB;} .st1{fill:#FFFFFF;} </style> <g> <path class="st0" d="M22.3,16.4c24,9.1,54.3,14.1,86.4,14.1c32,0,62.3-5,86.3-14v20.2h9.7V1.8l-6.8,3c-23.7,10.3-55.4,16-89.2,16 c-33.9,0-65.6-5.7-89.3-16l-6.8-3v34.8h9.7V16.4z"></path> <path class="st0" d="M195,123.6c-24-9.1-54.3-14-86.3-14c-32,0-62.4,5-86.4,14.1v-18.7h-9.7v33.3l6.8-3 c23.8-10.4,55.5-16.1,89.3-16.1c33.8,0,65.5,5.7,89.2,16l6.8,3v-33.3H195V123.6z"></path> </g> <g> <path class="st1" d="M0,97.2V43.3h32.4l7.8,7.8V65l-5.8,3.3l5.8,3.7v17.3l-7.8,7.8L0,97.2L0,97.2z M9.8,68.6l20.5-8.5v-5.8l-2.1-2 H9.8V68.6z M9.8,88.2h18.5l2.1-2V76.1l-5.9-3.7l-14.6,6L9.8,88.2z"></path> <polygon class="st1" points="47.9,97.1 47.9,43.3 57.7,43.3 57.7,88.2 78.4,88.2 78.4,97.1 "></polygon> <path class="st1" d="M86.1,97.1v-46l7.8-7.8h31.8v53.8h-9.9v-22L96,83.3v13.8H86.1z M96,73.5l19.8-8.1V52.3H98l-2.1,2V73.5z"></path> <polygon class="st1" points="133.4,97.1 133.4,80.1 143.3,80.1 143.3,88.2 161.1,88.2 163.1,86.2 163.1,79.2 133.4,67 133.4,51.2 141.3,43.3 173,43.3 173,60.4 163.1,60.4 163.1,52.3 145.3,52.3 143.3,54.3 143.3,61.3 173,73.5 173,89.3 165.2,97.1 "></polygon> <polygon class="st1" points="194.9,97.1 194.9,52.3 180.7,52.3 180.7,43.3 219,43.3 219,52.3 204.8,52.3 204.8,97.1 "></polygon> </g> </svg> 