<?xml version="1.0" encoding="utf-8"?>
<!-- Generator: Adobe Illustrator 22.0.1, SVG Export Plug-In . SVG Version: 6.00 Build 0)  -->
<!DOCTYPE svg PUBLIC "-//W3C//DTD SVG 1.1//EN" "http://www.w3.org/Graphics/SVG/1.1/DTD/svg11.dtd">
<svg version="1.1" id="Layer_1" xmlns="http://www.w3.org/2000/svg" xmlns:xlink="http://www.w3.org/1999/xlink" x="0px" y="0px"
	 width="48px" height="48px" viewBox="0 0 48 48" style="enable-background:new 0 0 48 48;" xml:space="preserve">
<style type="text/css">
	.st0{clip-path:url(#SVGID_2_);fill:#26A2DC;}
	.st1{clip-path:url(#SVGID_4_);fill:#FFFFFF;}
</style>
<g>
	<defs>
		<path id="SVGID_1_" d="M24,0C10.7,0,0,10.7,0,24c0,5,1.5,9.7,4.2,13.5L1,47l9.5-3.2C14.3,46.5,19,48,24,48c13.3,0,24-10.7,24-24
			C48,10.7,37.3,0,24,0"/>
	</defs>
	<clipPath id="SVGID_2_">
		<use xlink:href="#SVGID_1_"  style="overflow:visible;"/>
	</clipPath>
	<rect x="-5" y="-5" class="st0" width="58" height="58"/>
</g>
<g>
	<defs>
		<path id="SVGID_3_" d="M35.2,31.2c-1.8-1.8-3.8-3.3-3.8-3.3l-2.8,2.8L17.3,19.4l2.8-2.8c0,0-1.5-1.9-3.3-3.8
			C15,11,13.1,9.4,13.1,9.4S9.7,12.6,9.5,15c-0.3,3.3,3.2,9.3,8.7,14.8c5.5,5.5,11.5,9,14.8,8.7c2.5-0.2,5.6-3.6,5.6-3.6
			S37,33,35.2,31.2"/>
	</defs>
	<clipPath id="SVGID_4_">
		<use xlink:href="#SVGID_3_"  style="overflow:visible;"/>
	</clipPath>
	<rect x="4.4" y="4.4" class="st1" width="39.1" height="39.1"/>
</g>
</svg>
