<?xml version="1.0" encoding="utf-8"?>
<!-- Generator: Adobe Illustrator 22.0.1, SVG Export Plug-In . SVG Version: 6.00 Build 0)  -->
<!DOCTYPE svg PUBLIC "-//W3C//DTD SVG 1.1//EN" "http://www.w3.org/Graphics/SVG/1.1/DTD/svg11.dtd">
<svg version="1.1" id="Layer_1" xmlns="http://www.w3.org/2000/svg" xmlns:xlink="http://www.w3.org/1999/xlink" x="0px" y="0px"
	 width="48px" height="48px" viewBox="0 0 48 48" style="enable-background:new 0 0 48 48;" xml:space="preserve">
<style type="text/css">
	.st0{clip-path:url(#SVGID_2_);enable-background:new    ;}
	.st1{clip-path:url(#SVGID_4_);}
	.st2{clip-path:url(#SVGID_6_);}
	.st3{clip-path:url(#SVGID_8_);fill:#FFFFFF;}
</style>
<g>
	<defs>
		<polygon id="SVGID_1_" points="24,5.1 46.9,5.1 46.9,42.9 24,42.9 1.1,42.9 1.1,5.1 		"/>
	</defs>
	<clipPath id="SVGID_2_">
		<use xlink:href="#SVGID_1_"  style="overflow:visible;"/>
	</clipPath>
	<g class="st0">
		<g>
			<defs>
				<rect id="SVGID_3_" x="1.1" y="5.1" width="46" height="38"/>
			</defs>
			<clipPath id="SVGID_4_">
				<use xlink:href="#SVGID_3_"  style="overflow:visible;"/>
			</clipPath>
			<g class="st1">
				<defs>
					<path id="SVGID_5_" d="M46.9,9.5c-1.7,0.8-3.5,1.3-5.4,1.5C43.5,9.9,45,8,45.7,5.8c-1.8,1.1-3.8,1.9-6,2.3
						c-1.7-1.9-4.2-3-6.9-3c-5.2,0-9.4,4.3-9.4,9.6c0,0.8,0.1,1.5,0.2,2.2c-7.8-0.4-14.8-4.2-19.4-10C3.4,8.2,3,9.9,3,11.6
						c0,3.3,1.7,6.2,4.2,8c-1.5,0-3-0.5-4.3-1.2v0.1c0,4.6,3.2,8.5,7.5,9.4c-0.8,0.2-1.6,0.3-2.5,0.3c-0.6,0-1.2-0.1-1.8-0.2
						c1.2,3.8,4.7,6.6,8.8,6.6c-3.2,2.6-7.3,4.1-11.7,4.1c-0.8,0-1.5,0-2.2-0.1c4.2,2.7,9.1,4.3,14.4,4.3
						c17.3,0,26.8-14.6,26.8-27.2l0-1.2C44.1,13.1,45.7,11.5,46.9,9.5"/>
				</defs>
				<clipPath id="SVGID_6_">
					<use xlink:href="#SVGID_5_"  style="overflow:visible;"/>
				</clipPath>
				<g class="st2">
					<defs>
						<rect id="SVGID_7_" x="1.1" y="5.1" width="46" height="38"/>
					</defs>
					<clipPath id="SVGID_8_">
						<use xlink:href="#SVGID_7_"  style="overflow:visible;"/>
					</clipPath>
					<rect x="-3.9" y="0.1" class="st3" width="55.9" height="47.9"/>
				</g>
			</g>
		</g>
	</g>
</g>
</svg>
