<?xml version="1.0" encoding="UTF-8"?> <!-- Generator: Adobe Illustrator 23.0.6, SVG Export Plug-In . SVG Version: 6.00 Build 0) --> <svg xmlns="http://www.w3.org/2000/svg" xmlns:xlink="http://www.w3.org/1999/xlink" id="Layer_1" x="0px" y="0px" viewBox="0 0 127 141" style="enable-background:new 0 0 127 141;" xml:space="preserve"> <style type="text/css"> .st0{fill:#FFFFFF;} .st1{fill:none;} .st2{fill:#234CA1;} .st3{fill:#ACACAC;} </style> <path class="st0" d="M10.3,62.4c-4.7-14-5-21.9-6.6-36.1c2.6,3.2,6.3,6,7.8,9.5c1.1,2.6-0.6,4.6-1.1,7.1c-0.2,1,0.1,1.7,0.6,2.4 c1.3,1.4,3.1,0.8,4.4,0c0.9-0.8,2-1.8,2.1-3.3c0-0.7,0.1-1.5-0.1-2.2c-0.5-0.7-1.5-1.4-1.3-1.9c2.2-6.4,5.5-12.4,9.4-18 c2.8,9.5-2.6,19.7-5.4,28.9c1.9-0.6,3.4-1.5,4.7-2.7c-0.4,0.7-0.6,1.5-0.5,2.3c0.1,1.7,1.3,3.3,2.8,4c1.7,0.8,3.5,0.5,4.9-0.6 c3.2-2.4,4-5.6,4.6-9.2c0.4-2.4,0.7-4.8,1-7.2c0.2,0.1,0.4,0.2,0.4,0.2c1.3,0.6,3.1,0.1,3.2-1.3c0.1-0.8-1.2-0.4-1.7,0.1 c-0.1,0-0.2-0.1-0.3-0.1c-0.3-0.1-0.5-0.3-0.7-0.5c-0.1-0.1-0.2-0.2-0.4-0.2c-0.1-0.1-0.2-0.2-0.4-0.3c0,0,0,0,0,0 c0.2-2,0.5-4,0.7-6c0.1-0.5,0.2-0.9,0.3-1.2c0.6,0.4,1.4,1.3,1.6,1.4c0.3,0.3,0.7,0.6,1,0.9c1.8,1.6,3.4,3.3,4.7,5.2 c0.1,0.2,0.5,0.6,0.9,1.3c-1.9,0.8-3.7,1.9-5.4,3.5c-0.4,0.4-0.7,1.5,0,1.7c2.3,0.5,4.5,0.5,6.6,0.2c0,0.2,0.1,0.4,0.1,0.6 c0.9,3.3,1,6.8,0.7,10.1c0,0.4,1.5,0.1,1.9,0.1c0.4-0.1,0.9-0.4,1-0.8c0.1-0.7,0.1-1.4,0.1-2.1c0-0.2,0-0.3,0-0.5 c-0.1-2.3,0-5.3-0.7-7.6c0-0.2-0.1-0.3-0.1-0.5c0,0,0,0,0,0c0.5-0.2,1.1-0.4,1.6-0.6c-0.1,1.6-0.2,3.1-0.4,4.7 c-0.1,2.8,0.1,5.5,1.5,7.9C56.5,47,57.1,42,57,36.8c0.5-0.3,1-0.6,1.5-0.9c9.9,2.6,17.5,10.7,26.8,16.5c4.7,2.9,11,1.2,13.3-3.8 c0.9-0.5,1.6-1.1,2.5-1.8c1.1-1.1,2-2.5,2.6-3.8c0.3-0.9,0.6-2,0.3-3c-0.3-0.6-0.1-1.5-0.6-2.1c-1.4-1.8-2.7-3.2-4.7-3.7 c-0.8-0.2-1.6,0.1-2.3,0.6c-0.6,0.5-0.7,1.1-1.3,1.4c-0.6,0.5-0.5,1.3-0.3,1.5c1.2,2,4.4,0.8,5.6,2.8c0.9,1.5-0.1,3.2-1.5,4.4 c0-0.1-0.1-0.2-0.1-0.2c-0.2-0.2-0.8-0.4-1-0.4c-0.6,0.5-1.1,1.2-1.6,2c-1.1,0.2-2,0.1-3.1,0c-4.1-1-7.5-3.5-10-7.1 c-0.5-0.8-1.1-1.6-1.4-2.7c-0.1-1.1-0.2-2.1,0.1-3c1-2.6,4.1-2.8,6.4-3.4c1.4-0.3,3.6-1.7,2.1-3.3C90,26.2,89,26,88.1,25.7 c-3.7-1.6-10.8,1.4-12.1-3.8c0-0.2,0.1-0.9,0.3-1.1c6.1-5.5,14.1-0.3,20.8,1.1c1,0.4,1.9,1.1,2.2,2c1.2,2-0.9,3.7-1.3,5.6 c-0.1,0.9,0.3,1.7,1,2.1c1,0.1,1.3-0.9,1.9-1.5c1.3-2.7,3-5.8,1.5-8.9c-1.7-3.7-5.1-5.8-8.6-7c-3.9-1-7.7-1.6-11.6-1.3 c-2.4,0-4.7,0.5-6.8,2c-0.4,0.3-0.8,0.6-1.2,1c-0.2-0.8-0.6-1.6-1.2-2.3c-1.9-1.6-4.4-0.3-6.1,0.8c-0.2,0.2-0.1,0.6-0.1,1 c2,8.1-3.5,14-9.7,18.3c-0.1,0-0.2,0-0.4,0c-0.3-5.4-1.1-11-0.5-16.3c0-2-0.1-4-0.1-6c0-4.3,0-7.9,0.1-10.1c0.1-2.1-3.3-0.3-3.3,1 c0,1.5-0.1,3.6-0.1,6.1c0,2.5,0,5.4,0,8.5c0,2.8,0.1,5.6,0.2,8.4c0.1,2.7,0.1,5.4-0.1,8.2c-1.1,0.1-2.2,0.2-3.3,0.5 c-1-4.2-2.3-9.5-3-11.7c-0.1-0.2-2.4-7.2-4.2-10.1c0-0.1,0-0.2,0-0.4c0-0.4,0-0.7,0.1-1.1c0-0.1,0-0.3,0-0.4 c0.1-1.3,0.2-2.5,0.2-3.8c0-0.4-0.4-0.5-0.8-0.4c-0.4-0.1-1-0.3-1.5-0.4c-0.4-2.1-0.6-4.3-2.2-5.5C37.9-0.2,37,0.5,37,0.8 C37.2,2.9,37.9,5,38.7,7c-0.2,1.3-0.3,3-0.4,3.2c-0.3,4.2-0.9,8.4-1.5,12.6c-0.6-0.2-1.3-0.5-1.6-0.5c-1.8-0.2-3.3,2-3.6,2.9 c-0.3,1.2-0.3,2.4,0,3.6c0.1,0.2,0.1,0.3,0.2,0.5c0.3,0.8,0.7,1.5,1.3,2.2c0.6,0.7,1.5,1.6,2.1,2.2c-0.2,1.2-0.4,2.4-0.6,3.7 c-0.3,2.3-0.6,4.1-0.9,6.3c-0.3,1.7-0.3,2.3-0.9,3.9c-0.5,1.3-1.1,2.5-2.5,3c-1.5,0.6-2.5,0.5-3.6-0.6c-1.1-1.1-1.6-2.9-0.5-4.1 c1.1-1.1,2.9-1.6,4.4-0.9c0.7,0.3,1.6-1.2,0.9-1.5c-1.7-0.8-3.7-0.4-5.1,0.7c4.5-6.2,3.9-16.6,6.2-23.8c0.8-2.5,0.4-5.1,0.5-7.8 c0.1-2.5,0-5-0.2-6.8c-0.2-1.6-6.5,3.4-7.5,4.6c-1.2,1.4-1.8,2.4-1.7,3.7c0,0-0.1,0.3-0.1,0.7c-3.2,7.1-5.6,14.5-9.3,21.2 c-3.8-5.7-7.9-11.1-11.4-17.2c0-0.1,0-0.2,0-0.2c-0.1-1.4-0.6-2.6-1.7-3.8c-0.4,1.2-1.5,2.5-1.2,3.9c0.1,18,0.1,30.3,9.1,46.2 C10,64.1,10.6,63.3,10.3,62.4z M94.2,49.7c-0.9,1.1-2,1.5-3.6,0.4c-0.6-0.4-1.2-0.8-1.9-1.2c0.9,0.3,1.9,0.6,2.9,0.7 C92.5,49.8,93.4,49.8,94.2,49.7z M72.3,20.9c0,0.9,0.2,1.8,0.5,2.7c1.6,4,5.3,5.3,9.1,5.7c-3.1,2.3-5,5.8-3.3,10.2 c0.7,1.7,1.6,3.2,2.8,4.5c-6.6-4.3-13.3-8-20.6-9.7C65.6,30.8,69.5,26.2,72.3,20.9z M45.3,38c0.8-0.6,1.6-1.1,2.4-1.5 c0.1,0.6,0.2,1.1,0.2,1.6C47,38.2,46.2,38.2,45.3,38z M52.9,35.2c0,0.4,0,0.7-0.1,1.1c-0.8,0.4-1.5,0.8-2.3,1.2 c-0.1-0.6-0.3-1.2-0.5-1.9C51.1,35.3,52,35.2,52.9,35.2z M39.8,20.2c0.3-1.5,0.3-4.1,0.6-5.6c0.6,1.4,2,5.5,2.4,6.6 c0,0.2,0.1,0.3,0.1,0.5c0.8,2.9,1.7,5.7,2.8,8.5c-0.6-0.5-0.9-1-1.3-1.6c-0.1-0.1-0.2-0.2-0.4-0.4c-0.6-0.6-1.3-1.2-2-1.8 c-0.3-0.3-0.7-0.6-1-0.9c-0.1-0.1-1.6-1.5-1.6-1.5S39.7,22.3,39.8,20.2z M34.5,29.5c-0.1-0.1-0.1-0.3-0.2-0.4 c-0.5-1.1-0.8-2.2-0.7-3.3c0.1-0.6-0.1-1.3,0.5-1.6c0.8-0.3,1.8,0,2.5,0.3c-0.3,2.2-0.7,4.4-1,6.7C35,30.5,34.7,29.8,34.5,29.5z M14.2,39.1c0.5,0.6,0.9,1.2,1.2,1.8c0.6,0.9,0,1.7-0.7,2.2c-1.3,0.9-2.2-0.2-2.2-0.9C12.5,41.3,13.3,40.2,14.2,39.1z"></path> <g> <path class="st1" d="M82.6,59.6c1.2-3.2-1.9-6.5-5.4-6.5c-1.7,0-3.4,0.4-5.2,0.9c0,4.1,0,8.2-0.2,12.4c0.6,0.2,1.2,0.5,1.8,0.7 C77.6,65.8,81.2,63.6,82.6,59.6z"></path> <path class="st2" d="M70.3,84.3L70.3,84.3C70.3,84.3,70.3,84.3,70.3,84.3C70.3,84.3,70.3,84.3,70.3,84.3z"></path> <path class="st1" d="M41,53.5c-1.6,1.1-2.1,3.6-0.6,4.6c1.3,0.6,2.5,0.2,3.5-0.7c-0.2-1.3-0.5-2.6-1-3.9 C42.8,53.1,41.7,53.1,41,53.5z"></path> <path class="st1" d="M69,55.2c-4.3,1.8-8.4,3.7-12.3,2c0.4,1.2,0.4,2.6,0.3,3.9c-0.1,2-0.3,4.1-0.9,6.1c-0.1,0.2-0.1,0.4-0.2,0.6 c0.3-0.4,0.7-0.8,1.1-0.9c3.7-1.6,7.3-2.1,10.7-1.6c0.9-3.3,1.6-6.5,1.4-9.2C69,55.8,69,55.5,69,55.2z"></path> <g> <path class="st1" d="M60.1,68c0,0,0.2,0.7,0.5,0.9c2.1,1.3,4,0,6.1-0.3c0,0,0.1,0,0.1,0c0.1-0.5,0.2-0.9,0.4-1.4 C65.1,66.9,62.7,67.1,60.1,68z"></path> <path class="st1" d="M41,53.5c-1.6,1.1-2.1,3.6-0.6,4.6c1.3,0.6,2.5,0.2,3.5-0.7c-0.2-1.3-0.5-2.6-1-3.9 C42.8,53.1,41.7,53.1,41,53.5z"></path> <path class="st1" d="M69,55.2c-4.3,1.8-8.4,3.7-12.3,2c0.4,1.2,0.4,2.6,0.3,3.9c-0.1,2-0.3,4.1-0.9,6.1c-0.1,0.2-0.1,0.4-0.2,0.6 c0.3-0.4,0.7-0.8,1.1-0.9c3.7-1.6,7.3-2.1,10.7-1.6c0.9-3.3,1.6-6.5,1.4-9.2C69,55.8,69,55.5,69,55.2z"></path> <path class="st1" d="M82.6,59.6c1.2-3.2-1.9-6.5-5.4-6.5c-1.7,0-3.4,0.4-5.2,0.9c0,4.1,0,8.2-0.2,12.4c0.6,0.2,1.2,0.5,1.8,0.7 C77.6,65.8,81.2,63.6,82.6,59.6z"></path> <path class="st3" d="M99.6,82.8c-1.4-0.9-3.1-0.6-4,0.7c-0.5,0.5-0.2,0.7,0.2,0.9c0.5,0,0.9,0,1.4,0.2c-2.1,0.5-5,2.4-5.6,1.7 c0-1-12.1-15.9-16.7-18.4c4.3-2.2,8.2-5.5,11.2-9.2c0.7-0.9,0.5-2.3,0-3.2c-0.5-1.6-1.7-2.7-3.1-3.6c-1.9-1.1-4-0.9-6.1-0.6 c-1.7,0.4-3.3,0.9-4.9,1.4c0-0.6,0-1.2,0-1.8c0-1.1-2.1-0.2-3,0.4c0.2,0.8,0.2,1.6,0.2,2.5c-4,1.4-8,2.6-12.5,1.7 c0,0-0.3,0.3-0.6,0.6c-0.6-0.2-1.9,0.9-1.5,1.5c0.7,1.1,0.8,2.5,0.8,3.8c0,1.6-0.2,3.2-0.5,4.8c-0.6,3-1.7,6-3.7,8.3 c-0.4,0.5-0.9,1-1.4,1.4c-0.1,0.1-0.1,0.1,0,0c-0.4,0.3-0.3,0.3-0.6-0.1c-0.7-1-1.1-2.3-1.3-3.6c-0.5-2.9,0-6,0.8-9 c1-3.8,1.3-6.8,2.7-10.5c0.5-1.2-1.4-0.5-1.7,0.3c-1,2.6-2,5.3-2.8,7.9c0-1.3-0.2-2.5-0.5-3.7c0.9-1.5,1.4-3.2,1-4.9 c-0.4,0.9-0.9,2-1.5,3.1c-0.3-0.9-0.8-1.9-1.3-2.8c-0.4-0.5-0.9-0.5-1.2-0.6c-3,0.3-5.9,3.5-5.5,6.8c0.2,0.7,0.5,1.3,0.9,1.8 c0.4,0.3,0.7,0.7,1.2,0.8c1.5-0.1,3.1-0.8,4.4-1.9c0.1,6-2.5,12.1-4,18.4c-0.2,1-0.9,1.8-1.4,2.6c-0.5,0.6-1.8,1.9-2.5,1.7 c-4.6-4.9-4.3-12.8-2-19.9c0.6-1.8,1.3-3.5,2.2-5.2c0.9-1.6,1.9-3.2,3.1-4.6c0.7-0.9,2.4-0.9,2.7-2.3c-0.2,0-0.2,0.2-0.4,0.2 L41,50.8c-1.7,1.3-3.3,2.9-4.6,4.7c-1.4,1.7-2.5,3.6-3.5,5.7c-1.2,2.6-2.1,5.3-2.5,8.1c0,0,0,0,0-0.1c-0.8-6.1-2.5-12-5.1-17.5 c-0.4-0.9-1.8,0.5-1.7,1.2c0.5,2.4,0.6,5,0.2,7.5c0,0.2-0.1,0.5-0.1,0.7c0,0.1-0.1,0.3-0.1,0.4c-0.2,0.2-0.1,0.8-0.4,0.7 c-5.7-1.9-4.7-8.5-7.2-12.8c-0.5-0.7-1.8,0.2-2.2,1.1l0,0c-0.6,5.8,1.7,14.7,8.6,14.3c0.8-0.1,1.2-1,1.7-1.7 c0.1-0.1,0.2-0.3,0.3-0.4c0.6-0.9,0.9-2,1.1-3c0.1-0.4,0.1-0.9,0.1-1.3c0.9,2.6,1.7,5.3,2.2,8.1c0.5,2.3,0.8,4.6,1,6.9 c0.2,2.3,0.4,4.7,0.1,7.1c-0.1,1.3-0.5,2.7-1.3,3.8c-0.1,0.1-0.2,0.3-0.3,0.4c-2.7,2-6.3,1.3-9-0.6c-0.2-0.1-0.3-0.2-0.4-0.3 c-2.7-2.7-2.7-6.7-3.3-10.2c0-0.2,0-0.3,0.1-0.5c0.1-0.6,0.3-1.3,0.7-1.8c0.1-0.1,0.2-0.2,0.3-0.3c0.1-0.1,0.2-0.1,0.4-0.1 c2.2,0,2.8,2.6,3,4.3c0.1,1.2,1.6,1.4,2.7,0.7c0.8-0.7,1.1-1.6,0.6-2.4c-0.5-1.1-1.2-2.2-2.1-3.1c-0.7-0.6-1.3-1-2.2-1.1 c-0.2,0-0.4-0.1-0.5-0.1c-0.2,0-0.4,0-0.6,0c-1.8,0.2-3,1.7-3.5,3.3c-0.1,0.2-0.1,0.4-0.2,0.5c-2.2,4.2-1.4,10.2,2.4,13 c0.2,0.1,0.3,0.2,0.5,0.4c3.6,2.6,8.7,3.5,11.7-0.5c0.1-0.1,0.3-0.3,0.4-0.4c0.1-0.1,0.3-0.3,0.4-0.4c1.4-1.6,1.9-3.6,2.1-5.6 c0.6,2.1,1.7,4.1,3.1,5.8c0.4,0.5,1.2,1,1.9,0.3c1.6-1.1,2.9-2.5,4.1-4c1.8-2.9,3.5-6.1,4.8-9.6c0,0.9,0.1,1.8,0.3,2.7 c0.2,0.7,0.4,1.3,0.6,2c0.3,0.6,0.6,1.5,1.2,1.8c0.6,0.4,1.4-0.1,1.9-0.4c0.8-0.5,1.5-1.1,2.2-1.7c2.1-2,3.6-4.5,4.6-7.2 c0,0.2,0.1,0.4,0.2,0.5c3.4,1.4,6.9,1.7,10.5,1.2c-1.2,5-1.7,9.6,1.3,12.5l2.7,1.2c0.2-0.1,0.4-0.3,0.4-0.5 c0.4-4.9,0.7-9.7,0.9-14.5c0.2-0.1,0.3-0.1,0.5-0.2c6.2,3.7,10.3,11.8,14.6,17.7c0.2,0.3,0.4,0.5,0.6,0.7c0.1,1.4,4.2,1.6,4.2,1.1 c2.7-0.3,5.9-1.8,7.9-3.5c0.2-0.5,0.5-0.9,0.5-1.4C100,83.4,99.8,83,99.6,82.8z M40.5,58.1c-1.6-1-1-3.5,0.6-4.6 c0.7-0.5,1.8-0.4,2,0c0.5,1.3,0.8,2.6,1,3.9C43,58.3,41.8,58.7,40.5,58.1z M66.8,68.6c0,0-0.1,0-0.1,0c-2.1,0.3-4,1.6-6.1,0.3 c-0.2-0.2-0.5-0.9-0.5-0.9c2.6-0.9,4.9-1.1,7.1-0.8C67.1,67.7,66.9,68.2,66.8,68.6z M67.7,65.4c-3.3-0.5-6.9-0.1-10.7,1.6 c-0.4,0.1-0.8,0.5-1.1,0.9c0.1-0.2,0.1-0.4,0.2-0.6c0.5-2,0.8-4.1,0.9-6.1c0.1-1.3,0.1-2.7-0.3-3.9c3.9,1.7,8-0.3,12.3-2 c0,0.3,0,0.7,0.1,1C69.3,58.8,68.6,62,67.7,65.4z M71.8,66.4c0.1-4.1,0.2-8.3,0.2-12.4c1.7-0.6,3.4-1,5.2-0.9 c3.5,0,6.6,3.3,5.4,6.5c-1.4,3.9-5,6.2-9,7.6C73,66.9,72.4,66.6,71.8,66.4z"></path> </g> </g> <g> <path class="st1" d="M78.1,86.2c-2.6-1.2-5.5,0.4-7.7,2.1c-0.7,0.6-1.3,1.3-1.8,1.9c0.1,5.2-0.1,10.5,0.5,15.5 c0.1,0.6,0.2,1.3,0.3,1.9c0.7,0,1.3,0.1,2,0.2c3.6-3.7,7.1-7.4,9-12c0.6-1.6,1-3.5,0.7-5.3C80.8,88.7,80,87.1,78.1,86.2z"></path> <path class="st1" d="M34.9,99.9c-0.5-1.3,2.3-1.6,4.1-1.8c0-0.4,0-0.8,0-1.2c-0.9-2.5-4.1-3.6-6.5-2.5c-0.4,0.4-0.8,0.7-1.3,1.1 c-1.3,1.9-1.2,4.3,0.4,5.9c2.4,2.2,5.6,3.5,9,4c0.5-2.4,1-4.8,1.6-7.2C40.2,100.2,36,101.8,34.9,99.9z"></path> <path class="st1" d="M60.1,113.8c0,0.6,0.9,0.9,1.6,0.8c1.7,0,2.9-1.3,4.3-2.1c0,0,0,0,0.1,0c-0.1-0.6-0.2-1.2-0.3-1.8 C63,110.7,59.3,110.9,60.1,113.8z"></path> <path class="st1" d="M50.7,94.1c0.1-2.5-0.8-6-1.1-9.3c-0.8,1.8-1.7,3.6-2.1,5.5c-0.6,2-1.1,4.1-1.5,6.1c-0.6,3.1-1.1,6.1-1.4,9.2 c2.4,0,4.9-0.4,7.2-1.1c0.1,0,0.3-0.1,0.5-0.1c-0.2-1.1-0.3-2.2-0.5-3.2C51.3,98.8,51,96.4,50.7,94.1z"></path> <path class="st1" d="M18.3,108.7c-0.6,0.7-1.2,1.4-1.6,2.2c-1.5,2.5,2.2,5.5,3.9,3.8c1.3-1.2-0.4-3.5-1.5-4.9 C18.8,109.4,18.5,109.1,18.3,108.7z"></path> <path class="st0" d="M126.6,113.3c-0.2-0.2-0.7-0.3-1.2-0.2c-3.6,0.6-6.7-1.3-9.5-3.8c-2.8-2.5-5.4-5.7-8-7.8 c-2.8-2.3-6.1-4.4-9.7-5.7c1-0.8,2-1.5,2.8-2.1c2.5-1.9,4-4.4,5.7-7c1-1.4,1.5-2.8,2-4.3c0.3-1.1,0.2-2.3,0-3.4 c-0.4-1.2-1.2-2.1-2.2-2.8c-6.1-1.9-5.9,1.3-5.9,1.3c0.3,2.1,0.3,4.4,0.1,6.8c-0.2,2.3-0.8,4.6-1.7,6.7c-0.7,1.6-1.7,3-2.9,4.1 c-1.3-0.4-2.7-0.6-4.1-0.8c-0.1-1.6-0.2-3.2-0.2-4.8c0-0.5,0-0.9,0-1.4L91.7,86c0-1,0-1.9-0.1-2.9c-1.2-6.1,2.2-17.2-4.3-19.8 c-0.8,0.2-1.6,1.2-1.6,1.2c0.5,4.7,0.8,9.4,1.1,14.1l0.8,9.5c0,0,0,0,0,0c0.1,1.3,0.2,2.7,0.3,4c0.1,0.8,0.1,1.6,0.2,2.3 c-2.1,0.2-4.2,0.8-6.2,1.8c0,0,0.1-0.1,0.1-0.1c1.3-2.4,2.2-4.7,2.2-6.9c0-2.6-1.1-5.6-3.7-6.5c-3.9-0.9-8,1.3-10.8,4 c-0.4,0.4-0.8,0.7-1.2,1.1c0-1.5-0.1-3-0.2-4.4l-0.5-0.5c-0.5,0.1-1.2,0.6-1.7,0.8l-0.5,0.9c0.2,1.9,0.3,3.7,0.2,5.6c0,0,0,0,0,0.1 c-1.3,1.2-2.5,2.4-3.9,3.5c-1.6,1.3-2.8-0.1-4.1-0.5c-1.3-0.4-2.3,0.8-2.5,2.1l-0.1,1c-0.3-6.7-0.5-13.4-0.4-20.1 c-1.7,0.3-3.6,1.4-3.7,1.3c-1,0.2-2.2,0.4-2.9,1.2c-0.9,2.3-1.7,4.6-2.4,6.9c-0.8,2.3-1.4,4.6-2.1,7c-0.3,0.9-0.5,1.8-0.8,2.8 c-0.6-2-2.3-3.2-4.3-3.7c-3.2-0.8-7,0.2-9.4,2.4c0.1-0.8,0.3-1.7,0.5-2.5c0.4-0.7,0.7-1.5,0.5-2.1c0.1-0.3-0.8-0.7-1.1-0.8 c-2.9-0.6-6,1.6-7.4,3.8c-0.7,1.2-0.6,2.9-0.2,4.5c-0.3,0.7-0.5,1.3-0.8,2c-0.4,0.9-0.8,1.9-1.2,2.8c-0.1-0.2-0.2-0.4-0.4-0.7 c-1-1.8-1.9-3.6-2.8-5.5c-3.7-7.4-8.6-17.2-12-24.8c-0.4,0.2-0.6,0.8-0.8,1.4c0-0.2-0.1-0.5-0.1-0.7C2.3,72,2,73.1,1.4,74.1 c-0.1,6.7,0.5,13.5,2,20.1c0.4,2.2,0.9,4.3,1.5,6.5c2.2,8.6,6.9,27.6,9.1,36.3c0,0.2,0.7,0.2,1.1,0c2.8-0.9,1.6-4,1-5.8 c-1.9-5.9-5.4-22.3-6.9-28.3c-0.5-2-0.9-4-1.4-6c-0.6-3-1.2-6-1.8-9c1.2,2.7,2.5,5.4,4.1,8c0.9,1.6,1.8,3.2,2.8,4.7 c1.2,1.9,2.5,3.9,3.8,5.8c-3,3.4-5.7,7.7-2.7,11.1c1.2,1,2.8,1.3,4.3,1.3c0.6,0,0.9-0.1,1.4-0.4c3.6-2.8,4.7-7.7,2.6-11.5 c-0.4-0.6-0.7-1.3-1.1-1.9c0.7-1,1.3-2.1,1.9-3.1c3.8,11.7,9,28.9,12.6,39.2c1.1-0.8,2.2-2,1.8-3.4c-1.8-8.9-6.7-22.4-8.2-33.4 c3.1,2.4,6.9,3.4,10.9,3.7c-1.6,9.1-2.1,18.3-0.9,27.6c1.4,2.3,5.2,0.2,5.4-0.4c0.1-0.3,0-3.4-0.2-7.5c-0.6-6.6-0.8-13.1-0.2-19.6 c1.4-0.1,2.8-0.2,4.2-0.4c1.4-0.1,2.7-0.4,3.9-1c0.4,2.6,0.7,5.2,1,7.8c0,0,0.5,30.3,10.9,21.5c0.8-0.5,1.5-1.2,2.2-1.9 c1.6-1.8,2.8-4,3.6-5.7c0.7-1.7,1.1-3.5,0.8-5.2c-0.3-1.6-1.3-3.1-3.3-3.9c-3.1-1.3-6.9,0.6-7.4,3.5c0,0-0.2,1,0.3,1.6 c0.9,0.8,3.3-0.5,3.7-1.8c0.7,0.2,1.2,0.6,1.6,1.2c1.6,2,0.3,4.6-0.6,6.6c-0.3,0.5-0.6,1.1-0.9,1.5c0,0-6.1,6.8-8-18.8 c0-0.5-0.1-1.1-0.1-1.6c-0.1-3.2-0.4-6.5-0.6-9.7c-0.1-1.7-0.2-3.4-0.3-5.1c0.2,0.4,0.2,0.8,0.2,1c3.4,2.3,6.8-2.2,9.7-3.9 c0.2-0.1,0.4-0.3,0.6-0.5c-0.2,4.6-0.7,9.3-0.3,13.8c0,0.3,0,0.7,0.1,1c-0.7,0.1-1.5,0.3-2.2,0.5c-1.7,0.6-3.1,1.1-4.5,2.3 c-0.8,0.9-1.4,1.7-1.9,2.7c0,0-1.5,2.7,1.8,2.9c3.2,0.1,4.8-0.6,7.6-2.2c0.3,1.3,0.6,2.7,1,4c0.3,1.1,4.4,1.2,4-1 c-0.4-1.9-0.8-3.8-1.2-5.7c0.2-0.1,0.3-0.3,0.5-0.4c0.1,0,0.1,0,0.2,0c1.5,0.4,2.8,1,4.2,1.8c0.7,0.7,1.6,1,2.1,1.9 c3.4,5.2,3.7,11.3,6.5,16.6c1.4,2.2,3.5,3.5,6.1,3.3c2.1-0.2,3.5-1.1,4.9-2.7c2.1-2,6.1-5.5,2.8-7.5c-1.3-0.8-2.7,0.9-3,2.3 c0,0.4-0.1,1,0.3,1.1c0.2,0,0.6-0.1,1.1-0.1c-1.5,2.5-4.3,5.1-7.8,4c-1.1-0.4-2-1.1-2.5-2c-2.1-4.4-3.1-9.1-4.1-13.8 c-0.8-3.8-3.5-6.2-6.8-7.4c-0.4-0.1-0.9-0.3-1.4-0.4c2-2.7,4.9-5.9,7.2-9.3c2.1,3,5.1,3.4,8.3,2.4c0.1,1.6,0.2,3.2,0.3,4.8 c0.1,2.9,0.1,5.9-0.1,9c-0.2,2.3-0.5,5.3,1.3,6.3c2.5,1.7,8.2-1.6,7.9-2.4c-1.1-2.7-2-5.5-2.8-8.2c-0.8-2.8-1.4-5.5-2-8.3 c-0.2-1-0.4-1.9-0.5-2.9c0.8-0.4,1.6-0.9,2.3-1.4c2.4,1,4.6,2.6,6.2,4.5c1.7,1.8,3.3,4,5,6c5.1,6.2,10.8,11.9,20,7.2 c0.4-0.3,0.8-0.8,1-1.4C127.1,114.1,126.8,113.7,126.6,113.3z M20.5,114.7c-1.7,1.7-5.4-1.3-3.9-3.8c0.4-0.8,1-1.5,1.6-2.2 c0.3,0.4,0.5,0.7,0.8,1.1C20.1,111.2,21.8,113.5,20.5,114.7z M40.6,105.4c-3.4-0.5-6.5-1.8-9-4c-1.5-1.5-1.6-4-0.4-5.9 c0.4-0.4,0.8-0.7,1.3-1.1c2.5-1.1,5.6,0.1,6.5,2.5c0,0.3,0,0.8,0,1.2c-1.8,0.2-4.6,0.5-4.1,1.8c1,1.9,5.3,0.4,7.3-1.7 C41.6,100.6,41.1,103,40.6,105.4z M51.7,104.6c-2.3,0.7-4.7,1.1-7.2,1.1c0.3-3.1,0.8-6.2,1.4-9.2c0.4-2,0.9-4.1,1.5-6.1 c0.5-1.9,1.4-3.7,2.1-5.5c0.3,3.2,1.2,6.7,1.1,9.3c0.3,2.4,0.6,4.8,1,7.1c0.2,1.1,0.3,2.2,0.5,3.2C52,104.5,51.8,104.5,51.7,104.6z M65.9,112.5c-1.4,0.7-2.6,2-4.3,2.1c-0.6,0.1-1.5-0.2-1.6-0.8c-0.8-2.9,2.9-3.1,5.7-3.1C65.8,111.3,65.9,111.9,65.9,112.5 C66,112.5,65.9,112.5,65.9,112.5z M80.3,95.8c-1.9,4.7-5.4,8.3-9,12c-0.7-0.1-1.3-0.1-2-0.2c-0.1-0.6-0.2-1.3-0.3-1.9 c-0.6-5.1-0.5-10.3-0.5-15.5c0.6-0.6,1.1-1.3,1.8-1.9c2.2-1.6,5.1-3.3,7.7-2.1c1.9,0.9,2.7,2.5,3,4.3 C81.3,92.2,80.9,94.2,80.3,95.8z M87.7,98.2c-1.8-0.1-3.8,0.8-5.3-0.6c1.9-0.7,3.9-1,5.9-0.9c0,0.5,0.1,1,0.1,1.5 C88.1,98.1,87.9,98.2,87.7,98.2z M92.3,97.4L92.3,97.4L92.3,97.4c0-0.1,0-0.1,0-0.2c0.1,0,0.2,0,0.3,0.1c0,0-0.1,0-0.1,0 C92.4,97.4,92.3,97.4,92.3,97.4z"></path> <path class="st2" d="M92.3,97.4c0,0,0.1,0,0.1,0C92.4,97.4,92.3,97.4,92.3,97.4L92.3,97.4z"></path> <path class="st2" d="M92.3,97.2c0.1,0,0.2,0,0.3,0.1c0,0-0.1,0-0.1,0c0,0,0.1,0,0.1,0C92.5,97.3,92.4,97.3,92.3,97.2z"></path> <path class="st2" d="M92.3,97.4L92.3,97.4c0-0.1,0-0.1,0-0.2C92.3,97.3,92.3,97.3,92.3,97.4z"></path> </g> </svg> 